<?xml version="1.0" standalone="no"?>
<!DOCTYPE svg PUBLIC "-//W3C//DTD SVG 20010904//EN"
 "http://www.w3.org/TR/2001/REC-SVG-20010904/DTD/svg10.dtd">
<svg version="1.0" xmlns="http://www.w3.org/2000/svg"
 width="4764.000000pt" height="3184.000000pt" viewBox="0 0 4764.000000 3184.000000"
 preserveAspectRatio="xMidYMid meet">

<g transform="translate(0.000000,3184.000000) scale(0.100000,-0.100000)"
fill="#000000" stroke="none">
<path d="M32265 31180 c-492 -16 -1204 -53 -1710 -90 -325 -23 -556 -41 -650
-50 -55 -5 -136 -12 -180 -15 -606 -46 -1322 -135 -1615 -200 -1530 -341
-3469 -1793 -5506 -4125 -435 -498 -918 -1094 -1223 -1507 -30 -40 -59 -73
-66 -73 -7 0 -74 -20 -149 -45 -668 -221 -1274 -596 -1876 -1160 -630 -591
-1277 -1438 -1837 -2405 -719 -1241 -1358 -2707 -1939 -4446 l-77 -232 -56
-33 c-57 -34 -172 -107 -296 -187 -116 -76 -302 -210 -408 -295 -109 -88 -143
-133 -236 -312 -426 -815 -490 -1798 -184 -2840 50 -170 103 -315 116 -315 6
0 227 72 492 159 591 196 712 235 1085 351 162 50 365 113 450 140 456 143
1528 454 2035 591 66 17 224 60 350 95 127 34 302 81 390 104 167 43 338 88
465 122 337 89 1498 373 2040 498 462 106 1038 236 1115 251 28 5 58 12 67 15
14 4 21 -9 38 -68 229 -790 427 -1174 790 -1538 137 -138 381 -340 468 -389 9
-5 14 -12 10 -16 -10 -10 -306 196 -478 334 -124 99 -330 304 -408 408 -175
231 -298 491 -425 903 -28 89 -51 146 -59 148 -19 4 -1011 -219 -1553 -348
-44 -10 -147 -35 -230 -55 -82 -20 -206 -50 -275 -66 -293 -70 -1153 -287
-1410 -356 -52 -14 -135 -35 -185 -48 -49 -13 -130 -35 -180 -48 -49 -13 -151
-40 -225 -60 -74 -20 -259 -70 -410 -113 -151 -42 -288 -80 -305 -84 -16 -4
-104 -29 -195 -55 -91 -26 -178 -51 -195 -55 -118 -30 -1363 -401 -1590 -473
-44 -14 -159 -51 -255 -81 -362 -114 -466 -147 -490 -155 -14 -5 -144 -49
-290 -96 -322 -106 -692 -231 -980 -332 -118 -41 -258 -90 -310 -108 -246 -85
-990 -361 -1340 -497 -943 -367 -1694 -687 -2496 -1066 -425 -201 -406 -192
-750 -331 -288 -116 -524 -220 -524 -230 0 -19 727 -178 1140 -250 983 -171
2443 -319 3562 -361 161 -6 309 -14 328 -17 l35 -6 -40 -7 c-732 -126 -1760
-246 -2590 -305 -706 -49 -1075 -60 -2040 -59 -770 0 -953 5 -1535 40 -135 8
-295 17 -355 21 l-111 6 -254 -148 c-3509 -2041 -5600 -4075 -5970 -5806 -67
-311 -67 -692 0 -944 74 -280 192 -482 414 -712 332 -344 774 -599 1386 -798
700 -227 1537 -355 2655 -406 265 -12 1262 -15 1505 -5 85 3 214 9 285 12
1171 47 2704 193 4085 389 529 75 772 111 1335 199 242 38 890 146 1205 202
47 8 137 24 200 35 146 26 622 112 760 138 58 11 213 40 345 65 445 83 1560
305 1890 376 50 11 200 42 335 70 858 178 2326 506 3445 770 44 11 139 33 210
50 135 31 352 83 610 145 83 20 206 50 275 66 376 90 2079 514 2490 619 988
254 1258 324 1605 415 99 26 245 65 325 85 80 21 208 55 285 75 77 21 178 48
225 60 47 13 139 37 205 55 66 17 145 38 175 46 30 8 98 26 150 40 52 14 118
32 145 39 182 49 551 148 705 190 30 8 163 44 295 80 132 35 265 71 295 80 30
8 498 137 1040 286 976 268 1130 310 1285 354 44 13 157 44 250 70 193 53 401
111 555 155 126 35 505 141 755 211 99 28 218 61 265 74 47 13 191 54 320 90
129 37 321 91 425 120 105 30 280 79 390 110 1243 347 1827 523 2585 775 945
315 1620 564 2551 943 353 144 874 373 1394 613 425 196 1206 596 1660 852
1176 660 2126 1343 2796 2012 421 420 691 775 889 1170 331 659 317 1271 -40
1807 -137 205 -373 449 -554 572 -447 304 -976 590 -1429 773 -368 149 -1045
346 -1550 452 l-118 25 -242 -203 c-625 -524 -1060 -848 -1302 -970 -233 -117
-294 -68 -196 157 83 192 379 622 705 1026 64 80 114 147 111 149 -6 6 -208
35 -470 67 -732 89 -1441 141 -2405 176 -408 15 -1747 15 -2235 0 -597 -18
-1451 -56 -1715 -76 -36 -3 -139 -10 -230 -15 -453 -28 -1052 -75 -1530 -120
-743 -69 -818 -77 -1520 -156 -350 -39 -1031 -122 -1300 -159 -58 -8 -175 -24
-260 -35 -85 -11 -200 -27 -255 -35 -55 -8 -183 -26 -285 -40 -102 -14 -212
-30 -245 -35 -33 -5 -154 -23 -270 -40 -757 -111 -1549 -242 -2465 -406 -234
-42 -445 -80 -470 -85 -226 -40 -636 -119 -1170 -225 -151 -30 -280 -54 -287
-54 -10 0 -13 23 -13 88 l0 88 193 37 c105 21 284 55 397 77 113 22 267 52
344 67 l138 27 -6 45 c-3 25 -17 111 -31 191 -59 332 -117 763 -149 1120 -57
621 -48 1271 25 1700 11 63 21 122 24 130 2 8 6 35 9 60 10 88 77 404 107 508
55 190 111 279 250 403 262 234 644 360 1444 478 258 38 468 60 980 100 745
60 1774 66 2580 15 723 -45 1639 -166 1988 -263 45 -12 67 -15 67 -7 0 19
-282 579 -375 746 -369 660 -861 1364 -1289 1844 l-94 106 19 40 c54 111 69
293 35 420 -57 216 -234 450 -491 651 -161 126 -219 218 -220 350 0 66 4 83
35 143 43 86 147 193 261 269 46 30 96 61 110 67 26 12 26 14 33 143 23 473
137 1057 291 1497 176 505 410 895 713 1192 143 140 257 226 377 283 334 161
750 90 1235 -211 504 -311 1126 -924 1671 -1646 115 -153 119 -160 153 -270
101 -323 193 -777 227 -1113 16 -167 17 -507 0 -639 -50 -401 -200 -687 -441
-838 -174 -108 -417 -166 -618 -146 -223 22 -434 159 -611 395 -133 177 -223
353 -398 777 -52 127 -106 256 -119 286 -51 119 -20 259 96 430 90 133 291
332 482 477 80 61 76 64 -82 58 -418 -16 -704 -84 -903 -214 -162 -107 -237
-238 -238 -419 -1 -145 32 -254 144 -478 217 -433 546 -874 962 -1289 363
-363 665 -594 995 -758 404 -202 727 -239 985 -112 336 165 553 727 654 1700
33 311 63 787 86 1365 7 176 33 582 41 630 3 19 10 63 16 97 12 75 1 135 -74
388 -169 569 -539 1518 -875 2245 -508 1096 -989 1871 -1429 2301 -210 204
-346 290 -489 309 -107 14 -710 20 -1010 10z m-9050 -12000 c4 -6 -17 -10 -57
-9 -47 1 -57 3 -38 9 36 12 88 12 95 0z m-155 -20 c-8 -5 -33 -9 -55 -9 -31 0
-36 2 -20 9 29 13 94 13 75 0z m-161 -21 c-8 -5 -32 -8 -54 -8 -28 0 -34 3
-21 8 28 11 92 11 75 0z m-119 -19 c-8 -5 -35 -9 -60 -9 -34 0 -40 2 -25 9 29
13 104 13 85 0z m-160 -20 c-8 -5 -26 -9 -40 -9 l-25 1 25 8 c14 4 32 8 40 9
13 1 13 0 0 -9z m-120 -20 c-8 -6 -33 -9 -55 -9 -34 1 -36 2 -15 8 39 12 87
12 70 1z m-120 -20 c-8 -5 -31 -9 -50 -9 -29 0 -31 2 -15 9 11 5 34 9 50 9 23
1 26 -2 15 -9z m-145 -20 c-3 -5 -18 -10 -33 -9 l-27 1 25 8 c35 11 42 11 35
0z m-115 -20 c-8 -5 -28 -9 -45 -9 -30 2 -30 2 5 9 51 11 57 11 40 0z m-100
-20 c-8 -5 -33 -9 -55 -9 -30 1 -34 3 -17 7 13 4 38 8 55 9 24 2 28 0 17 -7z
m-115 -20 c-3 -5 -23 -9 -43 -9 l-37 1 30 8 c44 11 57 11 50 0z m-105 -20 c-8
-5 -31 -9 -50 -9 -29 0 -31 2 -15 9 11 5 34 9 50 9 23 1 26 -2 15 -9z m-100
-20 c-8 -5 -31 -9 -50 -9 -29 0 -31 2 -15 9 11 5 34 9 50 9 23 1 26 -2 15 -9z
m-100 -20 c-8 -5 -31 -9 -50 -9 -29 0 -31 2 -15 9 11 5 34 9 50 9 23 1 26 -2
15 -9z m-100 -20 c-8 -5 -31 -10 -50 -10 -26 0 -31 3 -20 10 8 5 31 10 50 10
26 0 31 -3 20 -10z m-100 -20 c-8 -5 -31 -9 -50 -9 -29 0 -31 2 -15 9 11 5 34
9 50 9 23 1 26 -2 15 -9z m-100 -20 c-8 -5 -28 -10 -45 -10 -23 0 -27 3 -15
10 8 5 29 10 45 10 23 0 27 -3 15 -10z m-94 -19 c-6 -9 -42 -16 -128 -26 -53
-6 -32 4 42 20 70 16 93 17 86 6z m-186 -41 c-8 -5 -28 -9 -45 -9 l-30 1 30 8
c17 4 37 8 45 9 13 1 13 0 0 -9z m-95 -20 c-3 -5 -14 -10 -23 -10 -15 0 -15 2
-2 10 20 13 33 13 25 0z m-85 -20 c-8 -5 -28 -9 -45 -9 l-30 1 30 8 c17 4 37
8 45 9 13 1 13 0 0 -9z m-85 -20 c-3 -5 -18 -10 -33 -9 -24 0 -25 1 -7 9 28
12 47 12 40 0z m-100 -20 c-3 -5 -14 -10 -23 -10 -15 0 -15 2 -2 10 20 13 33
13 25 0z m-55 -20 c-8 -5 -28 -10 -45 -10 -23 0 -27 3 -15 10 8 5 29 10 45 10
23 0 27 -3 15 -10z m-100 -20 c-8 -5 -26 -9 -40 -9 l-25 1 25 8 c14 4 32 8 40
9 13 1 13 0 0 -9z m-75 -20 c-3 -5 -13 -10 -21 -10 -8 0 -12 5 -9 10 3 6 13
10 21 10 8 0 12 -4 9 -10z m-85 -20 c-8 -5 -22 -10 -30 -10 -13 0 -13 1 0 10
8 5 22 10 30 10 13 0 13 -1 0 -10z m-85 -20 c-3 -5 -16 -10 -28 -9 -21 0 -21
1 -2 9 28 12 37 12 30 0z m-80 -18 c-6 -5 -30 -14 -55 -21 -25 -7 -59 -17 -76
-22 -17 -5 -41 -9 -55 -8 -26 1 41 23 120 40 24 5 47 11 49 14 3 3 10 5 16 5
6 0 6 -3 1 -8z m-220 -62 c-3 -5 -16 -10 -28 -9 -21 0 -21 1 -2 9 28 12 37 12
30 0z m-80 -20 c-3 -5 -16 -10 -28 -9 -21 0 -21 1 -2 9 28 12 37 12 30 0z
m-80 -18 c-6 -5 -28 -13 -50 -19 -22 -6 -59 -17 -83 -24 -23 -7 -44 -10 -47
-7 -3 3 23 13 57 23 35 9 74 21 88 25 34 11 46 12 35 2z m-219 -59 c-10 -10
-78 -33 -100 -33 -30 0 -13 10 40 24 60 17 69 18 60 9z m-136 -43 c-8 -5 -26
-9 -40 -9 l-25 1 25 8 c14 4 32 8 40 9 13 1 13 0 0 -9z m-80 -20 c-8 -5 -19
-10 -25 -10 -5 0 -3 5 5 10 8 5 20 10 25 10 6 0 3 -5 -5 -10z m-65 -20 c-3 -5
-16 -10 -28 -10 -18 0 -19 2 -7 10 20 13 43 13 35 0z m-70 -20 c-3 -5 -10 -10
-16 -10 -5 0 -9 5 -9 10 0 6 7 10 16 10 8 0 12 -4 9 -10z m-55 -15 c-14 -8
-34 -14 -45 -14 -13 0 -8 5 15 14 46 18 61 18 30 0z m-95 -25 c-3 -5 -14 -10
-23 -10 -15 0 -15 2 -2 10 20 13 33 13 25 0z m-55 -20 c-8 -5 -26 -9 -40 -9
-23 0 -23 1 -5 9 11 5 29 9 40 9 17 1 17 -1 5 -9z m-75 -20 c-3 -5 -14 -10
-23 -10 -15 0 -15 2 -2 10 20 13 33 13 25 0z m-61 -15 c-10 -8 -28 -14 -39
-14 -16 1 -13 4 10 14 40 19 53 19 29 0z m-88 -22 c-10 -10 -78 -33 -100 -33
-30 0 -13 10 40 24 60 17 69 18 60 9z m-136 -43 c-8 -5 -22 -10 -30 -10 -13 0
-13 1 0 10 8 5 22 10 30 10 13 0 13 -1 0 -10z m-60 -20 c-8 -6 -26 -9 -40 -9
-22 0 -21 2 10 13 37 14 54 11 30 -4z m-75 -20 c-3 -5 -10 -10 -16 -10 -5 0
-9 5 -9 10 0 6 7 10 16 10 8 0 12 -4 9 -10z m-55 -15 c-14 -8 -34 -14 -45 -14
-13 0 -8 5 15 14 46 18 61 18 30 0z m-95 -25 c-3 -5 -14 -10 -23 -9 -14 0 -13
2 3 9 27 11 27 11 20 0z m-45 -14 c0 -6 -97 -36 -117 -36 -10 1 5 9 32 19 48
18 85 25 85 17z m-150 -46 c-8 -5 -19 -10 -25 -10 -5 0 -3 5 5 10 8 5 20 10
25 10 6 0 3 -5 -5 -10z m-50 -14 c0 -6 -97 -36 -112 -35 -7 0 10 9 37 19 49
18 75 24 75 16z m-145 -46 c-3 -5 -14 -10 -23 -10 -15 0 -15 2 -2 10 20 13 33
13 25 0z m-120 -40 c-3 -5 -14 -10 -23 -10 -15 0 -15 2 -2 10 20 13 33 13 25
0z m-70 -20 c-3 -5 -14 -10 -23 -10 -15 0 -15 2 -2 10 20 13 33 13 25 0z m-50
-20 c-3 -5 -11 -10 -16 -10 -6 0 -7 5 -4 10 3 6 11 10 16 10 6 0 7 -4 4 -10z
m-65 -20 c-8 -5 -19 -10 -25 -10 -5 0 -3 5 5 10 8 5 20 10 25 10 6 0 3 -5 -5
-10z m-60 -15 c0 -11 -180 -78 -188 -70 -3 3 4 8 14 12 10 4 50 19 89 34 74
29 85 32 85 24z m-220 -79 c0 -8 -63 -36 -80 -36 -9 0 -21 -5 -27 -11 -6 -6
-17 -9 -24 -7 -8 3 16 16 51 30 68 27 80 31 80 24z m-150 -60 c0 -2 -7 -6 -15
-10 -8 -3 -15 -1 -15 4 0 6 7 10 15 10 8 0 15 -2 15 -4z m-48 -19 c-6 -7 -32
-18 -57 -26 -26 -8 -64 -22 -84 -32 -20 -9 -38 -15 -40 -13 -6 6 -3 8 89 46
95 40 107 43 92 25z m-202 -82 c-7 -8 -20 -15 -29 -15 -9 0 -22 -5 -29 -12 -6
-6 -14 -9 -18 -6 -6 6 62 47 80 48 5 0 3 -7 -4 -15z m-95 -34 c-8 -14 -65 -41
-84 -40 -9 0 7 11 34 24 59 28 58 28 50 16z m-105 -46 c0 -5 -150 -78 -212
-103 -56 -23 -26 -2 52 37 44 22 80 38 80 36 0 -3 15 4 33 14 33 20 47 25 47
16z m-255 -125 c-3 -5 -11 -10 -16 -10 -6 0 -7 5 -4 10 3 6 11 10 16 10 6 0 7
-4 4 -10z m-65 -30 c-24 -19 -40 -25 -40 -15 0 5 51 34 60 34 3 0 -6 -8 -20
-19z m-60 -24 c0 -2 -19 -15 -43 -29 -99 -58 -157 -87 -157 -79 0 5 44 32 98
60 103 55 102 54 102 48z m-220 -121 c-8 -8 -34 -24 -57 -37 -23 -13 -81 -47
-128 -76 -48 -30 -88 -52 -91 -50 -4 5 63 50 121 82 17 9 59 34 95 56 72 43
81 47 60 25z m-320 -196 c-19 -17 -51 -39 -70 -49 -19 -10 -48 -30 -63 -44
-15 -14 -33 -26 -40 -26 -7 0 -6 5 3 14 19 18 193 136 200 136 3 -1 -11 -14
-30 -31z"/>
<path d="M28555 18893 c-451 -27 -602 -42 -865 -84 -396 -63 -699 -158 -870
-272 -58 -39 -146 -123 -174 -167 -127 -197 -148 -814 -60 -1715 40 -401 91
-755 110 -755 7 0 145 22 306 49 161 27 381 63 488 80 294 47 321 52 375 62
28 5 113 18 190 29 77 12 181 27 230 35 50 8 124 19 165 25 41 5 102 14 135
19 33 5 110 16 170 25 61 9 139 20 175 26 36 5 166 23 290 40 124 17 254 35
290 40 228 34 1368 173 1805 220 154 17 336 37 405 45 69 8 154 17 190 20 110
9 174 16 203 21 l28 6 -2 246 c-2 366 -21 698 -59 1047 -22 198 -65 454 -84
500 -72 171 -771 335 -1786 420 -162 14 -405 29 -540 35 -218 9 -985 11 -1115
3z"/>
</g>
</svg>
